<svg width="64" height="64" viewBox="0 0 64 64" xmlns="http://www.w3.org/2000/svg">
  <title>fst-logo</title>
  <g>
    <path fill="#50a4ff"
          d="
          M3,0
          l29,0 l0,32 l-32,0
          l0,-29 a3,3,0,0,1,3,-3
          Z
          "
    />
    <path stroke="#eeeeee" stroke-width="2" fill="none" stroke-linecap="round" stroke-linejoin="round"
          d="
          M16,16 m-6,-6
          l12,6 l-12, 6
          "
    />
  </g>
  <g>
    <path fill="#98C379"
          d="
        M32,0
        l29,0 a3,3,0,0,1,3,3
        l0,29 l-32,0 l0,-29
        Z
        "
    />
    <g id="letter-f-lower"
       stroke="#eeeeee" stroke-width="2" fill="none" stroke-linecap="round" stroke-linejoin="round"
       transform="translate(16, 0) scale(1, 0.5)"
    >
      <circle cx="32" cy="12" r="6"/>
      <path d="
            M32,32 m0,-14
            a20,36,0,0,1,-5,44
            M32,32 m8,-6
            a18,64,-10,0,1,-14,0
            "
      />
      <path d="
            M32,32 m8,-6
            a18,64,-10,0,1,-14,0
            "
      />
    </g>
  </g>
  <g>
    <path fill="#ff5350"
          d="
        M32,32
        l32,0
        l0,29 a3,3,0,0,1,-3,3
        l-29,0 l0,-32
        Z
        "
    />
    <g id="letter-s-lower"
       stroke="#eeeeee" stroke-width="2" fill="none" stroke-linecap="round" stroke-linejoin="round"
       transform="translate(16, 28) scale(1, 0.5)"
    >
      <path d="
          M32,32 m0,-8
          a32,24,0,0,0,-1,16
          a32,24,0,0,1,-2,22
          "
      />
      <path d="
          M32,32 m-8,-4
          a28,24,0,0,0,0,10
          m14,-10
          a32,16,0,0,0,0,10
          m-12,10
          a32,14,0,0,1,-2,10
          m16,-10
          a24,18,0,0,1,-2,12
          "
      />
    </g>
  </g>
  <g>
    <path fill="#ffaa50"
          d="
        M0,32
        l32,0 l0,32
        l-29,0 a3,3,0,0,1,-3,-3
        l0,-29
        Z
        "
    />
    <g id="letter-t-lower"
       stroke="#3f3f3f" stroke-width="2" fill="none" stroke-linecap="round" stroke-linejoin="round"
       transform="translate(-16, 31) scale(1, 0.5)"
    >
      <path d="
            M32,32 m0,-26
            l0,44
            "
      />
      <path d="
            M32,32 m8,-6
            a12,12,0,0,1,-16,0
            "
      />
      <circle cx="32" cy="56" r="6"/>
    </g>
  </g>
</svg>